<?xml version="1.0" encoding="UTF-8"?>
<svg version="1.1" xmlns="http://www.w3.org/2000/svg" width="152" height="132">
<path d="M0 0 C0.66 0.33 1.32 0.66 2 1 C3.73868744 1.15266612 5.48247501 1.24932596 7.2265625 1.31640625 C8.2578125 1.35830078 9.2890625 1.40019531 10.3515625 1.44335938 C11.43179688 1.48267578 12.51203125 1.52199219 13.625 1.5625 C15.25695312 1.62727539 15.25695312 1.62727539 16.921875 1.69335938 C19.6144517 1.7996453 22.30712253 1.90168057 25 2 C25.40992187 3.04800781 25.81984375 4.09601562 26.2421875 5.17578125 C26.78627439 6.55476009 27.33055538 7.93366236 27.875 9.3125 C28.14441406 10.00279297 28.41382812 10.69308594 28.69140625 11.40429688 C29.92173667 14.51013099 31.13988463 17.20982695 33 20 C33 20.99 33 21.98 33 23 C33.66 23 34.32 23 35 23 C35.4125 23.99 35.825 24.98 36.25 26 C37.67957672 29.34467007 39.2667661 32.58241447 40.9375 35.8125 C42.40048736 38.8245328 43.68094821 41.92221249 45 45 C45.33 30.81 45.66 16.62 46 2 C52.93 2 59.86 2 67 2 C67 35 67 68 67 102 C60.07 102 53.14 102 46 102 C44.845 99.091875 43.69 96.18375 42.5 93.1875 C42.13455078 92.27508545 41.76910156 91.3626709 41.39257812 90.42260742 C41.10833984 89.69920166 40.82410156 88.9757959 40.53125 88.23046875 C40.23798828 87.49207764 39.94472656 86.75368652 39.64257812 85.99291992 C39 84 39 84 39 81 C38.34 81 37.68 81 37 81 C36.67386719 80.05898437 36.34773438 79.11796875 36.01171875 78.1484375 C35.57472656 76.90320313 35.13773438 75.65796875 34.6875 74.375 C34.25824219 73.14523438 33.82898438 71.91546875 33.38671875 70.6484375 C32.07778871 67.00724098 32.07778871 67.00724098 30.33203125 63.7265625 C29 61 29 61 29 58 C28.34 58 27.68 58 27 58 C26.67 57.01 26.34 56.02 26 55 C25.67 70.18 25.34 85.36 25 101 C21.34169572 102.82915214 17.02743635 102.22762535 13 102.25 C12.071875 102.270625 11.14375 102.29125 10.1875 102.3125 C8.8571875 102.32023437 8.8571875 102.32023437 7.5 102.328125 C6.6853125 102.3374707 5.870625 102.34681641 5.03125 102.35644531 C4.3609375 102.23881836 3.690625 102.12119141 3 102 C0.34355508 98.01533261 0.73506409 94.56221918 0.77294922 89.9387207 C0.77265717 89.01169342 0.77236511 88.08466614 0.77206421 87.12954712 C0.77345896 84.06153037 0.78902707 80.99375565 0.8046875 77.92578125 C0.80841711 75.80014682 0.81126433 73.67451067 0.81326294 71.5488739 C0.82090346 65.95107283 0.8405556 60.35337535 0.8626709 54.75561523 C0.88312027 49.04477337 0.89226271 43.33391479 0.90234375 37.62304688 C0.92380105 26.41531904 0.9579421 15.20766813 1 4 C0.34 4 -0.32 4 -1 4 C-0.67 2.68 -0.34 1.36 0 0 Z " fill="#047AC6" transform="translate(40,20)"/>
<path d="M0 0 C3.55915887 0.00917414 7.1176607 0.00228858 10.67675781 -0.02050781 C64.38367845 -0.36255663 64.38367845 -0.36255663 77.66430664 7.44604492 C77.97680664 10.25854492 77.97680664 10.25854492 77.66430664 13.44604492 C74.09501325 16.17204372 70.8751798 16.97002499 66.47680664 17.57104492 C62.43215969 18.06442974 62.43215969 18.06442974 58.66430664 19.44604492 C56.45701434 19.51697334 54.24763212 19.53019517 52.03930664 19.50854492 C50.85079102 19.49952148 49.66227539 19.49049805 48.43774414 19.48120117 C47.52250977 19.46959961 46.60727539 19.45799805 45.66430664 19.44604492 C45.66430664 18.12604492 45.66430664 16.80604492 45.66430664 15.44604492 C47.22547483 15.10652873 48.78832003 14.77471948 50.35180664 14.44604492 C51.22192383 14.26041992 52.09204102 14.07479492 52.98852539 13.88354492 C55.60143628 13.45632446 58.02243702 13.36988291 60.66430664 13.44604492 C60.66430664 12.78604492 60.66430664 12.12604492 60.66430664 11.44604492 C58.66557925 10.96159728 56.66524727 10.48376832 54.66430664 10.00854492 C53.55055664 9.74170898 52.43680664 9.47487305 51.28930664 9.19995117 C44.44582109 7.77668316 37.60026874 7.23205572 30.63305664 6.89526367 C29.77256714 6.85342453 28.91207764 6.81158539 28.0255127 6.76847839 C17.40789198 6.29400599 6.7908566 6.24999037 -3.83569336 6.25854492 C-4.87809174 6.25815216 -5.92049011 6.2577594 -6.99447632 6.25735474 C-33.51965409 5.24484845 -33.51965409 5.24484845 -59.33569336 9.44604492 C-59.99569336 9.11604492 -60.65569336 8.78604492 -61.33569336 8.44604492 C-61.33569336 7.45604492 -61.33569336 6.46604492 -61.33569336 5.44604492 C-42.05794041 -1.56421991 -20.19917411 -0.05457039 0 0 Z " fill="#83878C" transform="translate(66.335693359375,8.553955078125)"/>
<path d="M0 0 C0.66 0.33 1.32 0.66 2 1 C3.73868744 1.15266612 5.48247501 1.24932596 7.2265625 1.31640625 C8.2578125 1.35830078 9.2890625 1.40019531 10.3515625 1.44335938 C11.43179688 1.48267578 12.51203125 1.52199219 13.625 1.5625 C15.25695312 1.62727539 15.25695312 1.62727539 16.921875 1.69335938 C19.6144517 1.7996453 22.30712253 1.90168057 25 2 C25.40992187 3.04800781 25.81984375 4.09601562 26.2421875 5.17578125 C26.78627439 6.55476009 27.33055538 7.93366236 27.875 9.3125 C28.14441406 10.00279297 28.41382812 10.69308594 28.69140625 11.40429688 C29.92173667 14.51013099 31.13988463 17.20982695 33 20 C33 20.99 33 21.98 33 23 C33.66 23 34.32 23 35 23 C35.4125 23.99 35.825 24.98 36.25 26 C37.67957672 29.34467007 39.2667661 32.58241447 40.9375 35.8125 C42.40048736 38.8245328 43.68094821 41.92221249 45 45 C45.33 30.81 45.66 16.62 46 2 C52.93 2 59.86 2 67 2 C67 2.66 67 3.32 67 4 C57.1 4.495 57.1 4.495 47 5 C47.33 21.83 47.66 38.66 48 56 C47.34 56 46.68 56 46 56 C45.68546875 55.21496094 45.3709375 54.42992187 45.046875 53.62109375 C42.29021469 46.74617858 42.29021469 46.74617858 38.875 40.1875 C35.78914841 34.9415523 33.73891729 30.05912176 33 24 C32.34 24 31.68 24 31 24 C28.27547166 17.69056594 25.63822148 11.34599222 23 5 C16.73 4.67 10.46 4.34 4 4 C4 35.68 4 67.36 4 100 C10.27 100 16.54 100 23 100 C23 81.52 23 63.04 23 44 C23.99 44 24.98 44 26 44 C26.50471197 45.76949612 27.00360685 47.54065223 27.5 49.3125 C27.7784375 50.29863281 28.056875 51.28476563 28.34375 52.30078125 C29 55 29 55 29 58 C28.34 58 27.68 58 27 58 C26.67 57.01 26.34 56.02 26 55 C25.67 70.18 25.34 85.36 25 101 C21.34169572 102.82915214 17.02743635 102.22762535 13 102.25 C12.071875 102.270625 11.14375 102.29125 10.1875 102.3125 C8.8571875 102.32023437 8.8571875 102.32023437 7.5 102.328125 C6.6853125 102.3374707 5.870625 102.34681641 5.03125 102.35644531 C4.3609375 102.23881836 3.690625 102.12119141 3 102 C0.34355508 98.01533261 0.73506409 94.56221918 0.77294922 89.9387207 C0.77265717 89.01169342 0.77236511 88.08466614 0.77206421 87.12954712 C0.77345896 84.06153037 0.78902707 80.99375565 0.8046875 77.92578125 C0.80841711 75.80014682 0.81126433 73.67451067 0.81326294 71.5488739 C0.82090346 65.95107283 0.8405556 60.35337535 0.8626709 54.75561523 C0.88312027 49.04477337 0.89226271 43.33391479 0.90234375 37.62304688 C0.92380105 26.41531904 0.9579421 15.20766813 1 4 C0.34 4 -0.32 4 -1 4 C-0.67 2.68 -0.34 1.36 0 0 Z " fill="#C0D6EE" transform="translate(40,20)"/>
<path d="M0 0 C5.94 0 11.88 0 18 0 C18 32.34 18 64.68 18 98 C11.07 98 4.14 98 -3 98 C-4.155 95.091875 -5.31 92.18375 -6.5 89.1875 C-6.86544922 88.27508545 -7.23089844 87.3626709 -7.60742188 86.42260742 C-8.0337793 85.33749878 -8.0337793 85.33749878 -8.46875 84.23046875 C-8.90864258 83.12288208 -8.90864258 83.12288208 -9.35742188 81.99291992 C-10 80 -10 80 -10 77 C-10.66 77 -11.32 77 -12 77 C-12.99 74.03 -12.99 74.03 -14 71 C-13.01 71 -12.02 71 -11 71 C-8 75.22222222 -8 75.22222222 -8 78 C-7.34 78 -6.68 78 -6 78 C-5.731875 78.969375 -5.46375 79.93875 -5.1875 80.9375 C-3.93334281 85.34058424 -2.4675977 89.66391589 -1 94 C4.61 94 10.22 94 16 94 C16 63.31 16 32.62 16 1 C10.72 1 5.44 1 0 1 C0 0.67 0 0.34 0 0 Z " fill="#228CD0" transform="translate(89,24)"/>
<path d="M0 0 C0.33 0 0.66 0 1 0 C1 31.35 1 62.7 1 95 C7.27 95 13.54 95 20 95 C20 76.52 20 58.04 20 39 C20.99 39 21.98 39 23 39 C23.50471197 40.76949612 24.00360685 42.54065223 24.5 44.3125 C24.7784375 45.29863281 25.056875 46.28476563 25.34375 47.30078125 C26 50 26 50 26 53 C25.34 53 24.68 53 24 53 C23.67 52.01 23.34 51.02 23 50 C22.67 65.18 22.34 80.36 22 96 C18.34169572 97.82915214 14.02743635 97.22762535 10 97.25 C9.071875 97.270625 8.14375 97.29125 7.1875 97.3125 C5.8571875 97.32023437 5.8571875 97.32023437 4.5 97.328125 C3.6853125 97.3374707 2.870625 97.34681641 2.03125 97.35644531 C1.3609375 97.23881836 0.690625 97.12119141 0 97 C-0.66 96.01 -1.32 95.02 -2 94 C-1.505 93.01 -1.505 93.01 -1 92 C-0.87718275 89.10210977 -0.81423697 86.22671572 -0.79467773 83.32763672 C-0.78477814 82.43001617 -0.77487854 81.53239563 -0.76467896 80.60757446 C-0.733015 77.63163925 -0.70828719 74.65568806 -0.68359375 71.6796875 C-0.66302845 69.61987893 -0.64203209 67.56007461 -0.62062073 65.50027466 C-0.56535628 60.07187342 -0.5159663 54.64343383 -0.46777344 49.21496582 C-0.41759032 43.67843196 -0.36188763 38.14195399 -0.30664062 32.60546875 C-0.19900557 21.73702688 -0.09757249 10.86853654 0 0 Z " fill="#99B9D7" transform="translate(43,25)"/>
<path d="M0 0 C6.27 0 12.54 0 19 0 C19 0.99 19 1.98 19 3 C18.67 2.67 18.34 2.34 18 2 C12.39 1.67 6.78 1.34 1 1 C1 32.02 1 63.04 1 95 C6.28 95 11.56 95 17 95 C17 75.86 17 56.72 17 37 C17.99 37 18.98 37 20 37 C19.67 56.47 19.34 75.94 19 96 C12.73 96 6.46 96 0 96 C0 64.32 0 32.64 0 0 Z " fill="#2B8BCE" transform="translate(44,24)"/>
<path d="M0 0 C0.33 0 0.66 0 1 0 C1 31.35 1 62.7 1 95 C6.61 95 12.22 95 18 95 C18 95.33 18 95.66 18 96 C11.73 96 5.46 96 -1 96 C-1.33 95.34 -1.66 94.68 -2 94 C-1.505 93.01 -1.505 93.01 -1 92 C-0.87718275 89.10210977 -0.81423697 86.22671572 -0.79467773 83.32763672 C-0.78477814 82.43001617 -0.77487854 81.53239563 -0.76467896 80.60757446 C-0.733015 77.63163925 -0.70828719 74.65568806 -0.68359375 71.6796875 C-0.66302845 69.61987893 -0.64203209 67.56007461 -0.62062073 65.50027466 C-0.56535628 60.07187342 -0.5159663 54.64343383 -0.46777344 49.21496582 C-0.41759032 43.67843196 -0.36188763 38.14195399 -0.30664062 32.60546875 C-0.19900557 21.73702688 -0.09757249 10.86853654 0 0 Z " fill="#76B2E0" transform="translate(43,25)"/>
<path d="M0 0 C2.72426311 2.35277269 3.8141763 4.62496331 5 8 C5.66 8 6.32 8 7 8 C7.28875 9.0725 7.5775 10.145 7.875 11.25 C8.78999111 14.79760013 8.78999111 14.79760013 10.125 17 C11 19 11 19 11 26 C17.6 26 24.2 26 31 26 C31 26.66 31 27.32 31 28 C24.07 28 17.14 28 10 28 C8.845 25.091875 7.69 22.18375 6.5 19.1875 C6.13455078 18.27508545 5.76910156 17.3626709 5.39257812 16.42260742 C5.10833984 15.69920166 4.82410156 14.9757959 4.53125 14.23046875 C4.23798828 13.49207764 3.94472656 12.75368652 3.64257812 11.99291992 C3 10 3 10 3 7 C2.34 7 1.68 7 1 7 C0.34 5.02 -0.32 3.04 -1 1 C-0.67 0.67 -0.34 0.34 0 0 Z " fill="#86B2D4" transform="translate(76,94)"/>
<path d="M0 0 C6.93 0 13.86 0 21 0 C21 0.66 21 1.32 21 2 C14.4 2.33 7.8 2.66 1 3 C1 18.51 1 34.02 1 50 C0.67 50 0.34 50 0 50 C0 33.5 0 17 0 0 Z " fill="#5FA8DB" transform="translate(86,22)"/>
<path d="M0 0 C2.51397448 2.24821147 3.80123321 4.34697359 5.125 7.4375 C5.45757812 8.19933594 5.79015625 8.96117187 6.1328125 9.74609375 C7.69124549 13.79661552 7.69124549 13.79661552 8 16 C7.34 16.66 6.68 17.32 6 18 C0 4.28571429 0 4.28571429 0 0 Z " fill="#9CBFDB" transform="translate(65,26)"/>
<path d="M0 0 C0.66 0.33 1.32 0.66 2 1 C4.87910588 1.23274209 7.74146495 1.41972757 10.625 1.5625 C11.42679688 1.60568359 12.22859375 1.64886719 13.0546875 1.69335938 C15.0362511 1.79951457 17.01810271 1.90026855 19 2 C19 2.33 19 2.66 19 3 C16.72926348 3.16798051 14.45840707 3.33434113 12.1875 3.5 C10.29064453 3.63921875 10.29064453 3.63921875 8.35546875 3.78125 C5.22250506 3.98549443 2.13812958 4 -1 4 C-0.67 2.68 -0.34 1.36 0 0 Z " fill="#B8CADE" transform="translate(40,20)"/>
<path d="M0 0 C4.69011123 4.47692436 5.38514215 7.74894519 6 14 C5.34 13.67 4.68 13.34 4 13 C3.375 9.9375 3.375 9.9375 3 7 C2.34 7 1.68 7 1 7 C0.34 5.02 -0.32 3.04 -1 1 C-0.67 0.67 -0.34 0.34 0 0 Z " fill="#99C0DF" transform="translate(76,94)"/>
<path d="M0 0 C3 1 3 1 4.6875 4.25 C5.83944321 7.54126631 6.31025348 9.5872117 6 13 C2.10014426 8.84015388 1.10830253 5.44915409 0 0 Z " fill="#A8C7E1" transform="translate(72,42)"/>
<path d="M0 0 C4 6 4 6 3.625 8.6875 C3.41875 9.450625 3.2125 10.21375 3 11 C0.86466828 8.40046573 -0.56459104 6.37441946 -1 3 C-0.67 2.01 -0.34 1.02 0 0 Z " fill="#93B7D4" transform="translate(78,52)"/>
<path d="M0 0 C0.99 0.33 1.98 0.66 3 1 C3.8125 2.9375 3.8125 2.9375 4 5 C3.34 5.66 2.68 6.32 2 7 C0 4 0 4 0 0 Z " fill="#7BB0D8" transform="translate(69,37)"/>
</svg>
